<?xml version="1.0" encoding="iso-8859-1"?>
<!-- Generator: Adobe Illustrator 18.0.0, SVG Export Plug-In . SVG Version: 6.00 Build 0)  -->
<!DOCTYPE svg PUBLIC "-//W3C//DTD SVG 1.1//EN" "http://www.w3.org/Graphics/SVG/1.1/DTD/svg11.dtd">
<svg version="1.1" id="Capa_1" xmlns="http://www.w3.org/2000/svg" xmlns:xlink="http://www.w3.org/1999/xlink" x="0px" y="0px"
	 viewBox="0 0 297 297" style="enable-background:new 0 0 297 297;" xml:space="preserve">
<path d="M263.041,228.126c-8.253-7.935-20.503-19.925-24.874-25.085c-3.894-4.596-8.461-11.134-13.382-18.523
	c2.459-7.63,3.801-15.757,3.801-24.195c0-10.602-2.112-20.716-5.914-29.964l64.992-64.992C293.684,59.348,297,51.344,297,42.83
	s-3.315-16.518-9.336-22.539L276.715,9.343c-6.02-6.021-14.024-9.337-22.538-9.337c-8.515,0-16.519,3.316-22.539,9.336
	l-72.515,72.515c-3.153-0.384-6.355-0.605-9.61-0.605c-3.875,0-7.681,0.293-11.408,0.834L65.362,9.343
	c-6.02-6.021-14.024-9.337-22.539-9.337c-8.514,0-16.518,3.316-22.538,9.336L9.336,20.291C3.315,26.311,0,34.316,0,42.83
	s3.316,16.518,9.336,22.538l66.446,66.446c-3.435,8.852-5.339,18.46-5.339,28.51c0,7.67,1.119,15.079,3.165,22.097
	c-5.451,8.245-10.515,15.594-14.774,20.621c-4.367,5.155-16.609,17.138-24.863,25.073c-2.858-1.121-5.931-1.707-9.094-1.707
	c-6.644,0-12.891,2.588-17.59,7.286c-9.699,9.7-9.699,25.481,0,35.181l20.846,20.846c4.849,4.85,11.22,7.274,17.59,7.274
	s12.741-2.424,17.59-7.274c4.698-4.699,7.286-10.946,7.286-17.59c0-3.163-0.586-6.236-1.708-9.095
	c7.935-8.252,19.916-20.492,25.074-24.862c3.679-3.116,8.603-6.665,14.208-10.479c12.037,7.414,26.196,11.702,41.341,11.702
	c14.695,0,28.459-4.043,40.261-11.055c5.213,3.569,9.791,6.893,13.261,9.833c5.155,4.367,17.138,16.609,25.073,24.863
	c-1.121,2.858-1.707,5.931-1.707,9.094c0,6.644,2.588,12.891,7.286,17.59c4.849,4.85,11.22,7.274,17.59,7.274
	c6.37,0,12.741-2.424,17.59-7.274l20.846-20.846c9.699-9.7,9.699-25.481,0-35.181C282.516,226.497,271.969,224.64,263.041,228.126z
	 M194.275,198.389c-0.649-0.848-1.275-1.71-1.878-2.586l2.586-2.094c2.61-2.114,3.012-5.944,0.899-8.555
	c-2.114-2.61-5.943-3.012-8.555-0.899l-0.892,0.723c-0.43-1.01-0.831-2.031-1.207-3.063l3.541-2.388
	c2.785-1.879,3.519-5.658,1.641-8.444c-1.849-2.74-5.54-3.491-8.315-1.719c-0.14-0.981-0.26-1.967-0.354-2.959h2.24
	c3.359,0,6.082-2.723,6.082-6.082c0-3.359-2.723-6.082-6.082-6.082h-2.24c0.094-0.993,0.215-1.98,0.355-2.963
	c1.012,0.647,2.144,0.967,3.266,0.967c1.954,0,3.873-0.94,5.048-2.682c1.878-2.786,1.143-6.565-1.641-8.444l-3.541-2.388
	c0.376-1.031,0.776-2.053,1.206-3.062l0.892,0.723c1.126,0.912,2.48,1.355,3.824,1.355c1.772,0,3.529-0.77,4.731-2.254
	c2.113-2.61,1.712-6.44-0.899-8.555l-2.586-2.095c0.603-0.876,1.229-1.738,1.878-2.586c8.743,10.266,14.037,23.555,14.037,38.065
	C208.312,174.833,203.018,188.123,194.275,198.389z M245.974,23.676c2.191-2.191,5.104-3.397,8.203-3.397
	c3.098,0,6.012,1.207,8.202,3.398l10.949,10.949c2.192,2.191,3.398,5.105,3.398,8.203s-1.207,6.012-3.398,8.202l-61.15,61.15
	c-7.992-10.379-18.497-18.718-30.599-24.11L245.974,23.676z M23.67,51.032c-2.191-2.191-3.397-5.104-3.397-8.202
	s1.207-6.013,3.398-8.203l10.949-10.95c2.191-2.191,5.104-3.397,8.202-3.397c3.099,0,6.013,1.207,8.203,3.398l65.026,65.026
	c-11.957,5.609-22.292,14.117-30.084,24.626L23.67,51.032z M103.144,135.494c1.203,1.484,2.959,2.254,4.731,2.254
	c1.344,0,2.697-0.443,3.824-1.355l0.893-0.723c0.43,1.009,0.831,2.031,1.207,3.063l-3.541,2.388
	c-2.785,1.879-3.519,5.658-1.641,8.444c1.175,1.741,3.093,2.682,5.048,2.682c1.122,0,2.254-0.32,3.266-0.967
	c0.14,0.982,0.261,1.969,0.355,2.963h-2.24c-3.359,0-6.082,2.723-6.082,6.082c0,3.359,2.723,6.082,6.082,6.082h2.24
	c-0.094,0.992-0.215,1.978-0.354,2.959c-2.773-1.772-6.465-1.023-8.315,1.719c-1.878,2.786-1.143,6.565,1.641,8.444l3.541,2.388
	c-0.376,1.032-0.777,2.054-1.207,3.064l-0.894-0.724c-2.61-2.113-6.441-1.712-8.554,0.9c-2.113,2.61-1.712,6.44,0.9,8.554
	l2.586,2.094c-0.603,0.876-1.228,1.738-1.878,2.586c-8.743-10.266-14.037-23.555-14.037-38.065c0-14.51,5.294-27.799,14.037-38.065
	c0.649,0.848,1.275,1.71,1.878,2.586l-2.587,2.095C101.433,129.054,101.031,132.883,103.144,135.494z M80.861,222.704
	c-8.761,7.421-31.129,31.032-32.078,32.034c-3.773,3.986-3.687,10.253,0.194,14.136c1.173,1.173,1.348,2.543,1.348,3.256
	c0,0.712-0.175,2.082-1.348,3.255c-1.794,1.796-4.716,1.796-6.51,0l-20.846-20.846c-1.795-1.795-1.795-4.715,0-6.51
	c1.173-1.173,2.543-1.348,3.255-1.348c0.713,0,2.083,0.175,3.256,1.348c3.882,3.88,10.148,3.967,14.136,0.194
	c1.002-0.948,24.613-23.317,32.034-32.078c2.905-3.429,6.009-7.609,9.263-12.268c2.466,3.722,5.241,7.219,8.284,10.465
	C87.704,217.268,83.971,220.069,80.861,222.704z M113.595,206.827c0.871-1.096,1.715-2.209,2.519-3.346l2.28,1.846
	c1.126,0.912,2.479,1.355,3.823,1.355c1.772,0,3.529-0.77,4.731-2.255c2.113-2.61,1.712-6.44-0.9-8.554l-3.688-2.987
	c0.635-1.315,1.222-2.651,1.777-4.001l1.429,0.964c1.043,0.703,2.226,1.04,3.395,1.04c1.954,0,3.873-0.94,5.048-2.682
	c1.878-2.786,1.143-6.565-1.641-8.444l-4.432-2.989c0.752-3.392,1.268-6.854,1.546-10.371h2.798c3.359,0,6.082-2.723,6.082-6.082
	c0-3.359-2.723-6.082-6.082-6.082h-2.798c-0.278-3.517-0.794-6.979-1.546-10.371l4.432-2.99c2.785-1.879,3.519-5.658,1.641-8.444
	c-1.878-2.782-5.656-3.519-8.444-1.641l-1.429,0.964c-0.555-1.35-1.142-2.685-1.777-4l3.689-2.988
	c2.61-2.114,3.012-5.944,0.899-8.555c-2.115-2.61-5.944-3.013-8.555-0.899l-2.279,1.846c-0.804-1.136-1.647-2.249-2.519-3.345
	c9.943-7.697,22.401-12.295,35.919-12.295s25.976,4.597,35.919,12.295c-0.871,1.096-1.715,2.209-2.519,3.345l-2.279-1.846
	c-2.611-2.114-6.441-1.712-8.555,0.899c-2.113,2.61-1.712,6.44,0.899,8.555l3.689,2.988c-0.634,1.315-1.222,2.65-1.777,4
	l-1.429-0.964c-2.788-1.877-6.566-1.141-8.444,1.641c-1.878,2.786-1.143,6.565,1.641,8.444l4.432,2.99
	c-0.752,3.392-1.268,6.854-1.546,10.371h-2.798c-3.359,0-6.082,2.723-6.082,6.082c0,3.359,2.723,6.082,6.082,6.082h2.798
	c0.278,3.517,0.794,6.979,1.546,10.371l-4.432,2.989c-2.785,1.879-3.519,5.658-1.641,8.444c1.175,1.741,3.093,2.682,5.048,2.682
	c1.169,0,2.352-0.338,3.395-1.04l1.429-0.964c0.555,1.35,1.142,2.685,1.777,4l-3.689,2.987c-2.61,2.114-3.012,5.944-0.899,8.555
	c1.202,1.484,2.959,2.254,4.731,2.254c1.344,0,2.697-0.443,3.824-1.355l2.279-1.846c0.804,1.136,1.648,2.249,2.519,3.345
	c-9.943,7.697-22.401,12.295-35.919,12.295S123.537,214.525,113.595,206.827z M275.379,254.538l-20.846,20.846
	c-1.794,1.796-4.716,1.796-6.51,0c-1.173-1.173-1.348-2.543-1.348-3.255c0-0.713,0.175-2.083,1.348-3.256
	c3.881-3.882,3.967-10.149,0.194-14.136c-0.948-1.002-23.317-24.613-32.078-32.034c-2.804-2.375-6.121-4.887-9.78-7.502
	c2.957-3.062,5.671-6.358,8.107-9.863c2.878,4.069,5.636,7.742,8.232,10.806c7.421,8.761,31.032,31.129,32.034,32.078
	c3.988,3.774,10.255,3.688,14.135-0.194c1.795-1.795,4.717-1.797,6.512,0C277.173,249.824,277.173,252.744,275.379,254.538z"/>
<g>
</g>
<g>
</g>
<g>
</g>
<g>
</g>
<g>
</g>
<g>
</g>
<g>
</g>
<g>
</g>
<g>
</g>
<g>
</g>
<g>
</g>
<g>
</g>
<g>
</g>
<g>
</g>
<g>
</g>
</svg>
